<svg width="825.31769" height="679.90345" xmlns="http://www.w3.org/2000/svg">
 <title>personal_website</title>

 <g>
  <title>background</title>
  <rect fill="none" id="canvas_background" height="402" width="582" y="-1" x="-1"/>
 </g>
 <g>
  <title>Layer 1</title>
  <circle id="svg_1" fill="#ff6584" r="83.97916" cy="368.90424" cx="670.82111"/>
  <polygon id="svg_6" fill="#f2f2f2" points="0.584 502.277 0 502.779 0 679.903 825.318 679.903 825.318 368.779 815.482 369.525 0.584 502.277"/>
  <circle id="svg_11" fill="#f2f2f2" r="9.0658" cy="663.1758" cx="412.65883"/>
  <path id="svg_14" fill="#6c63ff" d="m671.801934,457.096409c0,59.16833 -64.7533,37.4968 -144.63055,37.4968s-144.63054,21.67152 -144.63054,-37.4968s64.7533,-176.77068 144.63054,-176.77068s144.63055,117.60234 144.63055,176.77068z"/>
  <path id="svg_15" fill="#3f3d56" d="m816.032534,506.713729q-25.12823,-4.25715 -48.33186,-7.31209l6.11529,-11.85669c-2.06208,-0.71618 -11.12175,6.0738 -11.12175,6.0738l8.02528,-34.41712c-10.37106,1.25072 -15.644,36.39264 -15.644,36.39264l-11.58705,-11.8812l5.60966,13.35766a1069.83378,1069.83378 0 0 0 -122.62463,-7.71735l5.23409,-10.14812c-2.06208,-0.71618 -11.1218,6.0738 -11.1218,6.0738l8.02533,-34.41712c-10.371,1.25072 -15.644,36.39265 -15.644,36.39265l-11.58705,-11.88125l5.9415,14.148c-13.45009,0.269 -25.72688,0.84335 -36.857,1.60468l1.84694,-3.581c-1.308,-0.45428 -5.42944,2.11049 -8.27034,4.04784c-0.81884,0.06378 -1.61951,0.13 -2.42467,0.19572l7.59854,-32.58688c-8.46015,1.02025 -13.52718,24.5907 -15.1074,33.24276c-1.11305,0.10394 -2.21655,0.2089 -3.30028,0.316l-8.74246,-8.9644c7.32342,-11.36346 18.0432,-20.33089 18.0432,-20.33089c-13.73443,4.08483 -20.93885,10.92983 -24.7034,17.31133a277.19745,277.19745 0 0 1 16.022,-95.77534s-28.38856,61.776 -24.76623,103.24263l0.38774,6.5893c-38.7225,-3.89644 -72.76886,-5.41622 -102.0792,-5.47969l5.23408,-10.14812c-2.06208,-0.71618 -11.12179,6.0738 -11.12179,6.0738l8.02533,-34.41712c-10.371,1.25072 -15.644,36.39265 -15.644,36.39265l-11.58706,-11.88127l5.94149,14.148a688.81886,688.81886 0 0 0 -70.49169,4.78821c5.294,-15.80886 23.27821,-30.84435 23.27821,-30.84435c-13.73443,4.08483 -20.93886,10.92983 -24.70341,17.31133a277.19727,277.19727 0 0 1 16.022,-95.77534s-28.38857,61.776 -24.76623,103.24263l0.43326,7.3633c-24.06708,3.44607 -36.16695,7.03142 -36.16695,7.03142l325.10576,4.07519q-8.50438,-1.44076 -16.782,-2.73627l218.28655,2.73627zm-273.99569,-22.87469l3.95519,9.418c-3.18683,0.34107 -6.25122,0.69255 -9.16219,1.05243a47.72894,47.72894 0 0 1 5.207,-10.47043z"/>
  <path id="svg_16" fill="#3f3d56" d="m717.828494,498.053239c-0.17562,-0.287 -4.31644,-7.201 -5.752,-21.55827c-1.31676,-13.172 -0.47006,-35.37447 11.04443,-66.34505c21.81385,-58.67172 -5.02713,-106.01129 -5.30139,-106.48284l1.32423,-0.76823c0.0695,0.11957 6.99553,12.1893 11.087,31.40851a137.02486,137.02486 0 0 1 -5.675,76.37613c-21.77648,58.57158 -5.58685,86.29886 -5.42095,86.57237l-1.30632,0.79738z"/>
  <circle id="svg_17" fill="#6c63ff" r="9.94813" cy="290.27386" cx="709.29875"/>
  <circle id="svg_18" fill="#3f3d56" r="9.94813" cy="327.00543" cx="740.67363"/>
  <circle id="svg_19" fill="#6c63ff" r="9.94813" cy="351.49314" cx="719.24688"/>
  <circle id="svg_20" fill="#6c63ff" r="9.94813" cy="372.15465" cx="745.26507"/>
  <circle id="svg_21" fill="#3f3d56" r="9.94813" cy="404.29477" cx="711.59447"/>
  <path id="svg_22" fill="#3f3d56" d="m723.838324,498.419419s-9.94813,-24.48771 19.89627,-42.8535l-19.89627,42.8535z"/>
  <path id="svg_23" fill="#3f3d56" d="m711.603664,497.975219s-4.52748,-26.04064 -39.56946,-25.81745l39.56946,25.81745z"/>
  <path id="svg_24" fill="#2f2e41" d="m550.727084,73.354039c-10.91222,-18.43827 -32.50116,-19.29757 -32.50116,-19.29757s-21.0372,-2.69022 -34.53243,25.39149c-12.57864,26.17446 -29.93875,51.44643 -2.79484,57.57369l4.903,-15.26027l3.03639,16.39637a106.20415,106.20415 0 0 0 11.61387,0.19849c29.06893,-0.93851 56.7527,0.27459 55.86132,-10.15657c-1.18495,-13.86674 4.91361,-37.10433 -5.58615,-54.84563z"/>
  <polygon id="svg_25" fill="#a0616a" points="472.074 222.167 469.778 263.49 537.12 270.378 539.415 227.524 516.458 212.985 472.074 222.167"/>
  <path id="svg_26" fill="#2f2e41" d="m653.053534,312.848479c-2.0195,-19.52168 -82.19232,-28.38305 -101.45987,-30.23328l-7.20435,-4.20257l-2.29573,-24.48771s-71.16741,-6.12193 -76.5241,-6.88717s-9.94813,9.18289 -9.94813,11.47862c0,1.65915 -1.00111,13.5075 -5.02171,20.53016c-8.68243,6.97666 -35.15344,28.92858 -35.15344,37.24553c0,9.94813 21.04412,135.065 21.04412,135.065l2.29573,26.01819l21.42675,3.82621l-1.53049,-81.11555s7.65241,-46.6797 -3.061,-59.6888l0,-5.35668s31.42257,-8.18664 42.49722,-17.10032c3.209,-0.68958 12.22685,-2.38844 17.20732,-0.911c0.683,0.40219 1.47051,0.81526 2.34588,1.23548a3.57764,3.57764 0 0 1 0.31672,0.32316s0.03129,-0.04815 0.08641,-0.13227c14.32632,6.70557 51.07713,15.16353 66.10694,12.75875a52.60028,52.60028 0 0 1 33.6706,6.12193c-8.41765,10.71337 -2.29572,41.323 -2.29572,41.323l0.76524,65.81073l10.71337,13.0091l14.53958,0l0,-35.96626s13.77438,-86.47226 11.47866,-108.66425z"/>
  <circle id="svg_27" fill="#a0616a" r="25.25295" cy="98.58099" cx="511.48395"/>
  <path id="svg_28" fill="#a0616a" d="m496.179124,114.651059s3.82621,16.8353 -1.53048,18.36578a72.42051,72.42051 0 0 0 -12.24386,5.35669l-6.12194,19.89626l0,19.89627l74.22837,8.41765l2.29573,-6.88717l0,-9.94813l-8.41765,-15.30482l-3.82621,-3.82621s-16.8353,-18.36578 -13.0091,-35.96632l-31.37486,0z"/>
  <path id="svg_29" fill="#a0616a" d="m562.372474,175.487729s2.29572,26.78343 0,39.02729s-1.53048,30.60964 -1.53048,30.60964l-16.8353,-3.061l0,-41.323l3.8262,-22.192l14.53958,-3.06093z"/>
  <circle id="svg_30" fill="#2f2e41" r="15.60999" cy="54.14985" cx="520.86818"/>
  <path id="svg_31" fill="#2f2e41" d="m503.615034,50.041959a15.61059,15.61059 0 0 1 13.96681,-15.52223a15.61,15.61 0 1 0 0,31.04447a15.6106,15.6106 0 0 1 -13.96681,-15.52224z"/>
  <polygon id="svg_32" fill="#2f2e41" points="545.903 71.577 524.574 60.404 495.12 64.975 489.026 91.89 504.195 91.306 508.433 81.418 508.433 91.143 515.433 90.874 519.496 75.131 522.035 91.89 546.918 91.382 545.903 71.577"/>
  <rect id="svg_33" fill="#f2f2f2" height="93.3594" width="93.3594" y="270.3776" x="468.24783"/>
  <path id="svg_34" fill="#a0616a" d="m452.943014,162.478619l-13.77434,56.62783s-5.35669,12.24386 6.88717,19.89627s39.79253,17.60054 39.79253,17.60054s24.48771,33.67061 27.54868,19.89627s-18.36579,-31.37488 -18.36579,-31.37488l-37.49681,-23.72247l14.53958,-39.79254l-19.13102,-19.13102z"/>
  <path id="svg_35" fill="#a0616a" d="m552.424344,233.646029s11.47861,-1.53048 10.71337,11.47862s-16.07006,14.53958 -16.07006,14.53958s-6.88717,29.07915 -16.8353,23.72247s5.35668,-34.43585 5.35668,-34.43585l13.0091,-9.94813l3.82621,-5.35669z"/>
  <path id="svg_36" fill="#2f2e41" d="m478.578584,157.504549l12.24386,-25.25295l-24.48772,8.41765s-13.77433,6.88717 -14.53958,22.95723s17.60055,24.48771 17.60055,24.48771s3.061,22.95723 1.53048,26.0182s0,15.30482 0,15.30482s29.46178,-8.035 44.00136,1.9131s26.40081,4.20882 26.40081,4.20882s-0.76524,-19.131 5.35669,-22.192s11.47861,-17.60055 6.12193,-26.78344c0,0 12.24385,1.53048 11.47861,-9.94813s-6.88717,-21.42675 -16.8353,-26.0182s-11.04785,-5.325 -11.04785,-5.325l14.10881,25.98654l0,6.88717s-24.97661,-15.94252 -49.68752,-17.27106a32.91358,32.91358 0 0 0 -22.24467,7.32256l-0.00046,0.00037l0,-10.71339z"/>
  <path id="svg_37" fill="#d0cde1" d="m459.022264,451.677299s10.85884,5.11 14.05262,7.0263s15.96888,-1.91626 13.41385,9.58133s-13.41389,22.35643 -13.41389,22.35643s-5.11005,5.7488 -5.11005,9.58133s-12.7751,33.21527 -28.10523,31.93776s-12.7751,-16.60763 -12.7751,-16.60763l3.19378,-16.60764s6.38755,-28.10523 7.66506,-27.46647s4.47129,5.11 4.47129,5.11s15.96892,-6.38751 16.60767,-24.91141z"/>
  <path id="svg_38" fill="#d0cde1" d="m618.277744,432.546269s-10.85884,5.11 -14.05262,7.02631s-15.96888,-1.91627 -13.41386,9.58133s13.41386,22.35643 13.41386,22.35643s5.11,5.7488 5.11,9.58133s12.77511,33.21527 28.10523,31.93776s12.77511,-16.60764 12.77511,-16.60764l-3.19378,-16.60763s-6.38755,-28.10523 -7.66506,-27.46648s-4.47129,5.11005 -4.47129,5.11005s-15.96884,-6.38756 -16.60759,-24.91146z"/>
 </g>
</svg>